<svg xmlns="http://www.w3.org/2000/svg" viewBox="0 0 24 24" width="24" height="24" fill="none">
  <path
    d="M8.5 10V7.75C8.5 5.67993 10.1799 4 12.25 4C14.3201 4 16 5.67993 16 7.75V10"
    stroke="#E7E9CE"
    stroke-width="1.8"
    stroke-linecap="round"
    stroke-linejoin="round"
  />
  <rect
    x="5.5"
    y="10"
    width="13"
    height="10"
    rx="2.5"
    stroke="#E7E9CE"
    stroke-width="1.8"
  />
  <path
    d="M12 13.25C10.8954 13.25 10 14.1454 10 15.25C10 16.0156 10.4304 16.6806 11.0625 17.0183V18.25C11.0625 18.7678 11.4822 19.1875 12 19.1875C12.5178 19.1875 12.9375 18.7678 12.9375 18.25V17.0183C13.5696 16.6806 14 16.0156 14 15.25C14 14.1454 13.1046 13.25 12 13.25Z"
    fill="#E7E9CE"
  />
</svg>